{
	"asset":{
		"version":"2.0",
		"generator":"Maxon Cinema 4D 2024.4.0 (#200000219)"
	},
	"scenes":[{
		"nodes":[0]
	}],
	"nodes":[{
		"name":"Cube",
		"mesh":0,
		"translation":[0.0,
		0.0,
		0.0],
		"rotation":[0.0,
		0.0,
		0.0,
		-1.0],
		"scale":[0.5,
		0.5,
		0.5]
	}],
	"meshes":[{
		"name":"Cube",
		"primitives":[{
			"attributes":{
				"POSITION":1,
				"NORMAL":2,
				"TEXCOORD_0":3
			},
			"indices":0
		}]
	}],
	"accessors":[{
		"bufferView":0,
		"type":"SCALAR",
		"componentType":5123,
		"count":36,
		"byteOffset":0,
		"min":[0],
		"max":[25]
	},
	{
		"bufferView":1,
		"type":"VEC3",
		"componentType":5126,
		"count":26,
		"byteOffset":0,
		"min":[-1.0,
		-1.9480079412460328,
		-2.4841439723968508],
		"max":[2.523021936416626,
		1.5781047344207764,
		1.2345508337020875]
	},
	{
		"bufferView":1,
		"type":"VEC3",
		"componentType":5126,
		"count":26,
		"byteOffset":12,
		"min":[-0.9912343621253967,
		-0.9463934898376465,
		-0.8351183533668518],
		"max":[0.9253889918327332,
		0.9321468472480774,
		0.9800502061843872]
	},
	{
		"bufferView":1,
		"type":"VEC2",
		"componentType":5126,
		"count":26,
		"byteOffset":24,
		"min":[0.0,
		0.0],
		"max":[1.0,
		1.0]
	}],
	"bufferViews":[{
		"buffer":0,
		"byteOffset":0,
		"byteLength":72,
		"target":34963
	},
	{
		"buffer":0,
		"byteOffset":72,
		"byteLength":832,
		"target":34962,
		"byteStride":32
	}],
	"buffers":[{
		"uri":"data:application/octet-stream;base64,",
		"byteLength":904
	}]
}