{
	"asset":{
		"version":"2.0",
		"generator":"Maxon Cinema 4D 2024.4.0 (#200000219)"
	},
	"scenes":[{
		"nodes":[0]
	}],
	"nodes":[{
		"name":"Cube",
		"mesh":0
	}],
	"meshes":[{
		"name":"Cube",
		"primitives":[{
			"attributes":{
				"POSITION":1,
				"NORMAL":2,
				"TEXCOORD_0":3
			},
			"indices":0
		}]
	}],
	"accessors":[{
		"bufferView":0,
		"type":"SCALAR",
		"componentType":5123,
		"count":36,
		"byteOffset":0,
		"min":[0],
		"max":[26]
	},
	{
		"bufferView":1,
		"type":"VEC3",
		"componentType":5126,
		"count":27,
		"byteOffset":0,
		"min":[-1.0,
		-1.787982702255249,
		-1.0976425409317017],
		"max":[2.403184652328491,
		1.6253348588943482,
		1.0]
	},
	{
		"bufferView":1,
		"type":"VEC3",
		"componentType":5126,
		"count":27,
		"byteOffset":12,
		"min":[-0.8554863929748535,
		-0.897365152835846,
		-0.8739216923713684],
		"max":[0.7882005572319031,
		0.8824458122253418,
		0.9807226061820984]
	},
	{
		"bufferView":1,
		"type":"VEC2",
		"componentType":5126,
		"count":27,
		"byteOffset":24,
		"min":[0.0,
		0.0],
		"max":[1.0,
		1.0]
	}],
	"bufferViews":[{
		"buffer":0,
		"byteOffset":0,
		"byteLength":72,
		"target":34963
	},
	{
		"buffer":0,
		"byteOffset":72,
		"byteLength":864,
		"target":34962,
		"byteStride":32
	}],
	"buffers":[{
		"uri":"data:application/octet-stream;base64,",
		"byteLength":936
	}]
}